<mxfile host="app.diagrams.net" modified="2023-05-28T18:35:07.380Z" agent="Mozilla/5.0 (Windows NT 10.0; Win64; x64) AppleWebKit/537.36 (KHTML, like Gecko) Chrome/112.0.0.0 Safari/537.36 OPR/98.0.0.0" etag="CFNA_OicLvJaP29aFRuk" version="21.3.4" type="device">
  <diagram name="Σελίδα-1" id="WVEBd1sjFHavCeA0LY7U">
    <mxGraphModel dx="2772" dy="861" grid="1" gridSize="10" guides="1" tooltips="1" connect="1" arrows="1" fold="1" page="1" pageScale="1" pageWidth="1169" pageHeight="1654" math="0" shadow="0">
      <root>
        <mxCell id="0" />
        <mxCell id="1" parent="0" />
        <mxCell id="SWPQcaOPygvo77F1xrFM-126" style="rounded=0;orthogonalLoop=1;jettySize=auto;html=1;exitX=0.5;exitY=0.5;exitDx=0;exitDy=0;exitPerimeter=0;strokeColor=#000000;fontColor=#000000;entryX=0.008;entryY=0.52;entryDx=0;entryDy=0;entryPerimeter=0;" parent="1" source="SWPQcaOPygvo77F1xrFM-130" target="SWPQcaOPygvo77F1xrFM-186" edge="1">
          <mxGeometry relative="1" as="geometry">
            <mxPoint x="300" y="810" as="targetPoint" />
          </mxGeometry>
        </mxCell>
        <mxCell id="SWPQcaOPygvo77F1xrFM-130" value="Χρήστης" style="shape=umlActor;verticalLabelPosition=bottom;verticalAlign=top;html=1;outlineConnect=0;fontColor=#000000;" parent="1" vertex="1">
          <mxGeometry x="-190" y="980" width="30" height="60" as="geometry" />
        </mxCell>
        <mxCell id="SWPQcaOPygvo77F1xrFM-184" value="&lt;font&gt;Εμφάνισε&amp;nbsp;&lt;/font&gt;" style="ellipse;shape=umlControl;whiteSpace=wrap;html=1;strokeColor=#000000;fontColor=#000000;" parent="1" vertex="1">
          <mxGeometry x="410" y="480" width="70" height="80" as="geometry" />
        </mxCell>
        <mxCell id="SWPQcaOPygvo77F1xrFM-185" style="rounded=0;orthogonalLoop=1;jettySize=auto;html=1;exitX=0.346;exitY=0.987;exitDx=0;exitDy=0;exitPerimeter=0;strokeColor=#000000;fontColor=#000000;entryX=0.65;entryY=0.006;entryDx=0;entryDy=0;entryPerimeter=0;" parent="1" source="SWPQcaOPygvo77F1xrFM-184" target="SWPQcaOPygvo77F1xrFM-186" edge="1">
          <mxGeometry relative="1" as="geometry">
            <mxPoint x="380" y="680" as="targetPoint" />
            <mxPoint x="165" y="820" as="sourcePoint" />
          </mxGeometry>
        </mxCell>
        <mxCell id="SWPQcaOPygvo77F1xrFM-186" value="Σελίδα &quot;Εγγραφή σε γυμναστήριο&quot;" style="shape=umlBoundary;whiteSpace=wrap;html=1;strokeColor=#000000;fontColor=#000000;fontSize=13;" parent="1" vertex="1">
          <mxGeometry x="330" y="670" width="120" height="95" as="geometry" />
        </mxCell>
        <mxCell id="SWPQcaOPygvo77F1xrFM-187" value="&lt;font&gt;Λίστα με&amp;nbsp; γυμναστήρια και προγράμματα&lt;/font&gt;" style="ellipse;shape=umlEntity;whiteSpace=wrap;html=1;strokeColor=#000000;fontColor=#000000;" parent="1" vertex="1">
          <mxGeometry x="630" y="370" width="90" height="90" as="geometry" />
        </mxCell>
        <mxCell id="SWPQcaOPygvo77F1xrFM-188" style="rounded=0;orthogonalLoop=1;jettySize=auto;html=1;strokeColor=#000000;fontColor=#000000;exitX=0.975;exitY=0.478;exitDx=0;exitDy=0;exitPerimeter=0;entryX=0;entryY=0.5;entryDx=0;entryDy=0;" parent="1" source="PaOrN-Bwbaz09RTFRe5F-1" target="SWPQcaOPygvo77F1xrFM-187" edge="1">
          <mxGeometry relative="1" as="geometry">
            <mxPoint x="540" y="480" as="targetPoint" />
            <mxPoint x="524" y="489" as="sourcePoint" />
          </mxGeometry>
        </mxCell>
        <mxCell id="SWPQcaOPygvo77F1xrFM-190" value="&lt;font style=&quot;font-size: 13px;&quot;&gt;Επιλέγει πρόγραμμα&lt;/font&gt;" style="edgeLabel;html=1;align=center;verticalAlign=middle;resizable=0;points=[];fontColor=#000000;rotation=-30;" parent="1" vertex="1" connectable="0">
          <mxGeometry x="399.99971194912996" y="830.0039875935843" as="geometry">
            <mxPoint x="-352" y="-147" as="offset" />
          </mxGeometry>
        </mxCell>
        <mxCell id="SWPQcaOPygvo77F1xrFM-191" style="rounded=0;orthogonalLoop=1;jettySize=auto;html=1;exitX=0.968;exitY=0.266;exitDx=0;exitDy=0;exitPerimeter=0;strokeColor=#000000;fontColor=#000000;entryX=0.044;entryY=0.709;entryDx=0;entryDy=0;entryPerimeter=0;" parent="1" source="SWPQcaOPygvo77F1xrFM-186" target="PaOrN-Bwbaz09RTFRe5F-3" edge="1">
          <mxGeometry relative="1" as="geometry">
            <mxPoint x="620" y="718" as="targetPoint" />
            <mxPoint x="524" y="489" as="sourcePoint" />
          </mxGeometry>
        </mxCell>
        <mxCell id="SWPQcaOPygvo77F1xrFM-192" value="&lt;font&gt;Εμφάνισε&amp;nbsp;&lt;/font&gt;" style="ellipse;shape=umlControl;whiteSpace=wrap;html=1;strokeColor=#000000;fontColor=#000000;" parent="1" vertex="1">
          <mxGeometry x="600" y="660" width="70" height="80" as="geometry" />
        </mxCell>
        <mxCell id="SWPQcaOPygvo77F1xrFM-193" value="Σελίδα &quot;Κατάλληλα γυμναστήρια&quot;" style="shape=umlBoundary;whiteSpace=wrap;html=1;strokeColor=#000000;fontColor=#000000;fontSize=13;" parent="1" vertex="1">
          <mxGeometry x="350" y="827" width="120" height="95" as="geometry" />
        </mxCell>
        <mxCell id="SWPQcaOPygvo77F1xrFM-194" style="rounded=0;orthogonalLoop=1;jettySize=auto;html=1;exitX=0.167;exitY=0.935;exitDx=0;exitDy=0;exitPerimeter=0;strokeColor=#000000;fontColor=#000000;entryX=0.902;entryY=0.142;entryDx=0;entryDy=0;entryPerimeter=0;" parent="1" source="SWPQcaOPygvo77F1xrFM-192" target="SWPQcaOPygvo77F1xrFM-193" edge="1">
          <mxGeometry relative="1" as="geometry">
            <mxPoint x="448" y="685" as="targetPoint" />
            <mxPoint x="524" y="489" as="sourcePoint" />
          </mxGeometry>
        </mxCell>
        <mxCell id="SWPQcaOPygvo77F1xrFM-195" value="&lt;font style=&quot;font-size: 13px;&quot;&gt;Επιλέγει γυμναστήριο&lt;/font&gt;" style="edgeLabel;html=1;align=center;verticalAlign=middle;resizable=0;points=[];fontColor=#000000;rotation=-15;" parent="1" vertex="1" connectable="0">
          <mxGeometry x="489.99971194912996" y="970.0039875935843" as="geometry">
            <mxPoint x="-352" y="-147" as="offset" />
          </mxGeometry>
        </mxCell>
        <mxCell id="SWPQcaOPygvo77F1xrFM-196" style="rounded=0;orthogonalLoop=1;jettySize=auto;html=1;exitX=0.5;exitY=0.5;exitDx=0;exitDy=0;exitPerimeter=0;strokeColor=#000000;fontColor=#000000;entryX=-0.023;entryY=0.515;entryDx=0;entryDy=0;entryPerimeter=0;" parent="1" source="SWPQcaOPygvo77F1xrFM-130" target="SWPQcaOPygvo77F1xrFM-193" edge="1">
          <mxGeometry relative="1" as="geometry">
            <mxPoint x="361" y="729" as="targetPoint" />
            <mxPoint x="145" y="728" as="sourcePoint" />
          </mxGeometry>
        </mxCell>
        <mxCell id="SWPQcaOPygvo77F1xrFM-197" style="rounded=0;orthogonalLoop=1;jettySize=auto;html=1;exitX=0.985;exitY=0.434;exitDx=0;exitDy=0;exitPerimeter=0;strokeColor=#000000;fontColor=#000000;entryX=0.234;entryY=0.946;entryDx=0;entryDy=0;entryPerimeter=0;" parent="1" source="SWPQcaOPygvo77F1xrFM-193" target="PaOrN-Bwbaz09RTFRe5F-6" edge="1">
          <mxGeometry relative="1" as="geometry">
            <mxPoint x="580" y="880" as="targetPoint" />
            <mxPoint x="560" y="924" as="sourcePoint" />
          </mxGeometry>
        </mxCell>
        <mxCell id="SWPQcaOPygvo77F1xrFM-198" value="&lt;font&gt;Εμφάνισε&amp;nbsp;&lt;/font&gt;" style="ellipse;shape=umlControl;whiteSpace=wrap;html=1;strokeColor=#000000;fontColor=#000000;" parent="1" vertex="1">
          <mxGeometry x="840" y="834.5" width="70" height="80" as="geometry" />
        </mxCell>
        <mxCell id="SWPQcaOPygvo77F1xrFM-199" style="rounded=0;orthogonalLoop=1;jettySize=auto;html=1;exitX=-0.03;exitY=0.705;exitDx=0;exitDy=0;exitPerimeter=0;strokeColor=#000000;fontColor=#000000;entryX=0.885;entryY=0.151;entryDx=0;entryDy=0;entryPerimeter=0;" parent="1" source="SWPQcaOPygvo77F1xrFM-198" target="SWPQcaOPygvo77F1xrFM-200" edge="1">
          <mxGeometry relative="1" as="geometry">
            <mxPoint x="450" y="980" as="targetPoint" />
            <mxPoint x="642" y="745" as="sourcePoint" />
          </mxGeometry>
        </mxCell>
        <mxCell id="SWPQcaOPygvo77F1xrFM-200" value="Σελίδα &quot;Πληροφορίες γυμναστηρίου&quot;" style="shape=umlBoundary;whiteSpace=wrap;html=1;strokeColor=#000000;fontColor=#000000;fontSize=13;" parent="1" vertex="1">
          <mxGeometry x="360" y="970" width="120" height="95" as="geometry" />
        </mxCell>
        <mxCell id="SWPQcaOPygvo77F1xrFM-201" style="rounded=0;orthogonalLoop=1;jettySize=auto;html=1;strokeColor=#000000;fontColor=#000000;entryX=-0.015;entryY=0.521;entryDx=0;entryDy=0;entryPerimeter=0;exitX=0.5;exitY=0.5;exitDx=0;exitDy=0;exitPerimeter=0;" parent="1" source="SWPQcaOPygvo77F1xrFM-130" target="SWPQcaOPygvo77F1xrFM-200" edge="1">
          <mxGeometry relative="1" as="geometry">
            <mxPoint x="357" y="886" as="targetPoint" />
            <mxPoint x="145" y="720" as="sourcePoint" />
          </mxGeometry>
        </mxCell>
        <mxCell id="SWPQcaOPygvo77F1xrFM-206" style="rounded=0;orthogonalLoop=1;jettySize=auto;html=1;exitX=0.46;exitY=1.017;exitDx=0;exitDy=0;exitPerimeter=0;strokeColor=#000000;fontColor=#000000;entryX=0.625;entryY=0.131;entryDx=0;entryDy=0;entryPerimeter=0;" parent="1" source="PaOrN-Bwbaz09RTFRe5F-3" target="SWPQcaOPygvo77F1xrFM-192" edge="1">
          <mxGeometry relative="1" as="geometry">
            <mxPoint x="666" y="510" as="targetPoint" />
            <mxPoint x="701" y="725" as="sourcePoint" />
          </mxGeometry>
        </mxCell>
        <mxCell id="SWPQcaOPygvo77F1xrFM-208" style="rounded=0;orthogonalLoop=1;jettySize=auto;html=1;strokeColor=#000000;fontColor=#000000;entryX=0.378;entryY=0.111;entryDx=0;entryDy=0;entryPerimeter=0;" parent="1" source="PaOrN-Bwbaz09RTFRe5F-6" target="SWPQcaOPygvo77F1xrFM-198" edge="1">
          <mxGeometry relative="1" as="geometry">
            <mxPoint x="820" y="680" as="targetPoint" />
            <mxPoint x="676" y="682" as="sourcePoint" />
          </mxGeometry>
        </mxCell>
        <mxCell id="SWPQcaOPygvo77F1xrFM-209" value="&lt;font style=&quot;font-size: 12px;&quot;&gt;Εισάγει επιλογή&lt;br style=&quot;font-size: 12px;&quot;&gt;(εγγραφή ή όχι)&lt;br style=&quot;font-size: 12px;&quot;&gt;&lt;/font&gt;" style="edgeLabel;html=1;align=center;verticalAlign=middle;resizable=0;points=[];fontSize=12;rotation=0;fontColor=#000000;" parent="1" vertex="1" connectable="0">
          <mxGeometry x="250.0002870063051" y="1420.004023431183" as="geometry">
            <mxPoint x="-176" y="-424" as="offset" />
          </mxGeometry>
        </mxCell>
        <mxCell id="SWPQcaOPygvo77F1xrFM-210" style="rounded=0;orthogonalLoop=1;jettySize=auto;html=1;exitX=0.994;exitY=0.632;exitDx=0;exitDy=0;exitPerimeter=0;strokeColor=#000000;fontColor=#000000;entryX=-0.031;entryY=0.625;entryDx=0;entryDy=0;entryPerimeter=0;" parent="1" source="SWPQcaOPygvo77F1xrFM-200" target="SWPQcaOPygvo77F1xrFM-211" edge="1">
          <mxGeometry relative="1" as="geometry">
            <mxPoint x="550" y="1060" as="targetPoint" />
            <mxPoint x="778" y="908" as="sourcePoint" />
          </mxGeometry>
        </mxCell>
        <mxCell id="SWPQcaOPygvo77F1xrFM-211" value="&lt;font&gt;Επιθυμεί να εγγραφεί ο χρήστης ;&lt;/font&gt;" style="ellipse;shape=umlControl;whiteSpace=wrap;html=1;strokeColor=#000000;fontColor=#000000;" parent="1" vertex="1">
          <mxGeometry x="600" y="1030" width="80" height="90" as="geometry" />
        </mxCell>
        <mxCell id="SWPQcaOPygvo77F1xrFM-214" style="rounded=0;orthogonalLoop=1;jettySize=auto;html=1;strokeColor=#000000;fontColor=#000000;exitX=0.197;exitY=0.9;exitDx=0;exitDy=0;exitPerimeter=0;entryX=1.016;entryY=0.41;entryDx=0;entryDy=0;entryPerimeter=0;" parent="1" source="SWPQcaOPygvo77F1xrFM-211" target="SWPQcaOPygvo77F1xrFM-216" edge="1">
          <mxGeometry relative="1" as="geometry">
            <mxPoint x="440" y="1150" as="targetPoint" />
            <mxPoint x="410" y="1180" as="sourcePoint" />
          </mxGeometry>
        </mxCell>
        <mxCell id="SWPQcaOPygvo77F1xrFM-215" value="&lt;font style=&quot;font-size: 13px;&quot;&gt;ναι&lt;/font&gt;" style="edgeLabel;html=1;align=center;verticalAlign=middle;resizable=0;points=[];fontColor=#000000;" parent="1" vertex="1" connectable="0">
          <mxGeometry x="959.99971194913" y="1280.0039875935843" as="geometry">
            <mxPoint x="-352" y="-147" as="offset" />
          </mxGeometry>
        </mxCell>
        <mxCell id="SWPQcaOPygvo77F1xrFM-216" value="Σελίδα &quot;Διάρκεια συνδρομής&quot;" style="shape=umlBoundary;whiteSpace=wrap;html=1;strokeColor=#000000;fontColor=#000000;fontSize=13;" parent="1" vertex="1">
          <mxGeometry x="300" y="1170" width="120" height="95" as="geometry" />
        </mxCell>
        <mxCell id="SWPQcaOPygvo77F1xrFM-219" style="rounded=0;orthogonalLoop=1;jettySize=auto;html=1;strokeColor=#000000;fontColor=#000000;entryX=-0.012;entryY=0.526;entryDx=0;entryDy=0;entryPerimeter=0;exitX=0.5;exitY=0.5;exitDx=0;exitDy=0;exitPerimeter=0;" parent="1" source="SWPQcaOPygvo77F1xrFM-130" target="SWPQcaOPygvo77F1xrFM-216" edge="1">
          <mxGeometry relative="1" as="geometry">
            <mxPoint x="288" y="1059" as="targetPoint" />
            <mxPoint x="-15" y="910" as="sourcePoint" />
          </mxGeometry>
        </mxCell>
        <mxCell id="SWPQcaOPygvo77F1xrFM-220" value="&lt;font style=&quot;font-size: 12px;&quot;&gt;Επιλέγει διάρκεια συνδρομής&lt;br style=&quot;font-size: 12px;&quot;&gt;&lt;/font&gt;" style="edgeLabel;html=1;align=center;verticalAlign=middle;resizable=0;points=[];fontSize=12;rotation=20;fontColor=#000000;" parent="1" vertex="1" connectable="0">
          <mxGeometry x="50.000287006305086" y="1540.004023431183" as="geometry">
            <mxPoint x="-176" y="-424" as="offset" />
          </mxGeometry>
        </mxCell>
        <mxCell id="SWPQcaOPygvo77F1xrFM-221" style="rounded=0;orthogonalLoop=1;jettySize=auto;html=1;exitX=1.008;exitY=0.647;exitDx=0;exitDy=0;exitPerimeter=0;strokeColor=#000000;fontColor=#000000;entryX=-0.005;entryY=0.469;entryDx=0;entryDy=0;entryPerimeter=0;" parent="1" source="SWPQcaOPygvo77F1xrFM-216" target="SWPQcaOPygvo77F1xrFM-222" edge="1">
          <mxGeometry relative="1" as="geometry">
            <mxPoint x="540" y="1350" as="targetPoint" />
            <mxPoint x="409" y="1070" as="sourcePoint" />
          </mxGeometry>
        </mxCell>
        <mxCell id="SWPQcaOPygvo77F1xrFM-222" value="&lt;font&gt;Εμφάνισε&amp;nbsp;&lt;/font&gt;" style="ellipse;shape=umlControl;whiteSpace=wrap;html=1;strokeColor=#000000;fontColor=#000000;" parent="1" vertex="1">
          <mxGeometry x="560" y="1250" width="70" height="80" as="geometry" />
        </mxCell>
        <mxCell id="SWPQcaOPygvo77F1xrFM-223" style="rounded=0;orthogonalLoop=1;jettySize=auto;html=1;strokeColor=#000000;fontColor=#000000;exitX=0.051;exitY=0.73;exitDx=0;exitDy=0;exitPerimeter=0;entryX=1.015;entryY=0.425;entryDx=0;entryDy=0;entryPerimeter=0;" parent="1" source="SWPQcaOPygvo77F1xrFM-222" target="SWPQcaOPygvo77F1xrFM-224" edge="1">
          <mxGeometry relative="1" as="geometry">
            <mxPoint x="360" y="1380" as="targetPoint" />
            <mxPoint x="500" y="1330" as="sourcePoint" />
          </mxGeometry>
        </mxCell>
        <mxCell id="SWPQcaOPygvo77F1xrFM-224" value="Σελίδα &quot;Στοιχεία χρήστη&quot;" style="shape=umlBoundary;whiteSpace=wrap;html=1;strokeColor=#000000;fontColor=#000000;fontSize=13;" parent="1" vertex="1">
          <mxGeometry x="300" y="1380" width="120" height="95" as="geometry" />
        </mxCell>
        <mxCell id="SWPQcaOPygvo77F1xrFM-225" style="rounded=0;orthogonalLoop=1;jettySize=auto;html=1;strokeColor=#000000;fontColor=#000000;entryX=-0.031;entryY=0.516;entryDx=0;entryDy=0;entryPerimeter=0;exitX=0.5;exitY=0.5;exitDx=0;exitDy=0;exitPerimeter=0;" parent="1" source="SWPQcaOPygvo77F1xrFM-130" target="SWPQcaOPygvo77F1xrFM-224" edge="1">
          <mxGeometry relative="1" as="geometry">
            <mxPoint x="194" y="1330" as="targetPoint" />
            <mxPoint x="-20" y="910" as="sourcePoint" />
          </mxGeometry>
        </mxCell>
        <mxCell id="SWPQcaOPygvo77F1xrFM-226" value="&lt;font style=&quot;font-size: 13px;&quot;&gt;Καταχωρεί τα ζητούμενα στοιχεία&lt;br style=&quot;font-size: 13px;&quot;&gt;&lt;/font&gt;" style="edgeLabel;html=1;align=center;verticalAlign=middle;resizable=0;points=[];fontSize=13;rotation=35;fontColor=#000000;" parent="1" vertex="1" connectable="0">
          <mxGeometry x="-109.99971299369491" y="1580.004023431183" as="geometry">
            <mxPoint x="-176" y="-424" as="offset" />
          </mxGeometry>
        </mxCell>
        <mxCell id="SWPQcaOPygvo77F1xrFM-227" style="rounded=0;orthogonalLoop=1;jettySize=auto;html=1;exitX=1.032;exitY=0.532;exitDx=0;exitDy=0;exitPerimeter=0;strokeColor=#000000;fontColor=#000000;entryX=0.022;entryY=0.582;entryDx=0;entryDy=0;entryPerimeter=0;" parent="1" source="SWPQcaOPygvo77F1xrFM-224" target="SWPQcaOPygvo77F1xrFM-228" edge="1">
          <mxGeometry relative="1" as="geometry">
            <mxPoint x="580" y="1428" as="targetPoint" />
            <mxPoint x="515" y="1450" as="sourcePoint" />
          </mxGeometry>
        </mxCell>
        <mxCell id="SWPQcaOPygvo77F1xrFM-228" value="&lt;font&gt;Είναι έγκυρα τα στοιχεία;&lt;/font&gt;" style="ellipse;shape=umlControl;whiteSpace=wrap;html=1;strokeColor=#000000;fontColor=#000000;" parent="1" vertex="1">
          <mxGeometry x="600" y="1375" width="80" height="90" as="geometry" />
        </mxCell>
        <mxCell id="SWPQcaOPygvo77F1xrFM-229" style="rounded=0;orthogonalLoop=1;jettySize=auto;html=1;strokeColor=#000000;fontColor=#000000;exitX=0.051;exitY=0.829;exitDx=0;exitDy=0;exitPerimeter=0;" parent="1" source="SWPQcaOPygvo77F1xrFM-228" target="SoW9vWZfNO9EW_fRScha-1" edge="1">
          <mxGeometry relative="1" as="geometry">
            <mxPoint x="421.0799999999999" y="1543.725" as="targetPoint" />
            <mxPoint x="892" y="1440" as="sourcePoint" />
          </mxGeometry>
        </mxCell>
        <mxCell id="SWPQcaOPygvo77F1xrFM-230" value="&lt;font style=&quot;font-size: 13px;&quot;&gt;ναι&lt;/font&gt;" style="edgeLabel;html=1;align=center;verticalAlign=middle;resizable=0;points=[];fontColor=#000000;" parent="1" vertex="1" connectable="0">
          <mxGeometry x="949.99971194913" y="1620.0039875935843" as="geometry">
            <mxPoint x="-352" y="-147" as="offset" />
          </mxGeometry>
        </mxCell>
        <mxCell id="SWPQcaOPygvo77F1xrFM-232" style="rounded=0;orthogonalLoop=1;jettySize=auto;html=1;exitX=0.421;exitY=0.116;exitDx=0;exitDy=0;exitPerimeter=0;strokeColor=#FF0000;fontColor=#000000;entryX=0.201;entryY=0.906;entryDx=0;entryDy=0;entryPerimeter=0;" parent="1" source="SWPQcaOPygvo77F1xrFM-211" target="PaOrN-Bwbaz09RTFRe5F-1" edge="1">
          <mxGeometry relative="1" as="geometry">
            <mxPoint x="810" y="1130" as="targetPoint" />
            <mxPoint x="681" y="1047" as="sourcePoint" />
          </mxGeometry>
        </mxCell>
        <mxCell id="SWPQcaOPygvo77F1xrFM-233" value="&lt;font style=&quot;font-size: 13px;&quot;&gt;όχι&lt;/font&gt;" style="edgeLabel;html=1;align=center;verticalAlign=middle;resizable=0;points=[];fontColor=#000000;" parent="1" vertex="1" connectable="0">
          <mxGeometry x="969.99971194913" y="1180.0039875935843" as="geometry">
            <mxPoint x="-352" y="-147" as="offset" />
          </mxGeometry>
        </mxCell>
        <mxCell id="SWPQcaOPygvo77F1xrFM-234" style="rounded=0;orthogonalLoop=1;jettySize=auto;html=1;exitX=0.982;exitY=0.35;exitDx=0;exitDy=0;exitPerimeter=0;strokeColor=#FF0000;fontColor=#000000;entryX=0.067;entryY=0.727;entryDx=0;entryDy=0;entryPerimeter=0;" parent="1" source="SWPQcaOPygvo77F1xrFM-228" target="SWPQcaOPygvo77F1xrFM-236" edge="1">
          <mxGeometry relative="1" as="geometry">
            <mxPoint x="800" y="1350" as="targetPoint" />
            <mxPoint x="974" y="1389" as="sourcePoint" />
          </mxGeometry>
        </mxCell>
        <mxCell id="SWPQcaOPygvo77F1xrFM-235" value="&lt;font style=&quot;font-size: 13px;&quot;&gt;όχι&lt;/font&gt;" style="edgeLabel;html=1;align=center;verticalAlign=middle;resizable=0;points=[];fontColor=#000000;" parent="1" vertex="1" connectable="0">
          <mxGeometry x="1049.99971194913" y="1557.5039875935843" as="geometry">
            <mxPoint x="-352" y="-147" as="offset" />
          </mxGeometry>
        </mxCell>
        <mxCell id="SWPQcaOPygvo77F1xrFM-236" value="&lt;font color=&quot;#ffffff&quot;&gt;Εμφάνισε μήνυμα σφάλματος&amp;nbsp;&lt;/font&gt;" style="ellipse;shape=umlControl;whiteSpace=wrap;html=1;strokeColor=#000000;fontColor=#000000;fillColor=#FF0000;" parent="1" vertex="1">
          <mxGeometry x="785" y="1250" width="90" height="104.75" as="geometry" />
        </mxCell>
        <mxCell id="SWPQcaOPygvo77F1xrFM-237" style="rounded=0;orthogonalLoop=1;jettySize=auto;html=1;exitX=-0.035;exitY=0.533;exitDx=0;exitDy=0;exitPerimeter=0;strokeColor=#FF0000;fontColor=#000000;entryX=1.003;entryY=0.583;entryDx=0;entryDy=0;entryPerimeter=0;" parent="1" source="SWPQcaOPygvo77F1xrFM-236" target="SWPQcaOPygvo77F1xrFM-222" edge="1">
          <mxGeometry relative="1" as="geometry">
            <mxPoint x="801" y="1336" as="targetPoint" />
            <mxPoint x="689" y="1416" as="sourcePoint" />
          </mxGeometry>
        </mxCell>
        <mxCell id="SoW9vWZfNO9EW_fRScha-1" value="&lt;font&gt;Εμφάνισε μήνυμα για ολοκλήρωση εγγραφής&amp;nbsp;&lt;/font&gt;" style="ellipse;shape=umlControl;whiteSpace=wrap;html=1;strokeColor=#000000;fontColor=#000000;" parent="1" vertex="1">
          <mxGeometry x="410" y="1490" width="90" height="100" as="geometry" />
        </mxCell>
        <mxCell id="w8nqDf1ZR5iuJsB7VwVL-1" style="rounded=0;orthogonalLoop=1;jettySize=auto;html=1;strokeColor=#000000;fontColor=#000000;exitX=0.8;exitY=0.956;exitDx=0;exitDy=0;exitPerimeter=0;entryX=0.233;entryY=0.044;entryDx=0;entryDy=0;entryPerimeter=0;" parent="1" source="SWPQcaOPygvo77F1xrFM-228" target="w8nqDf1ZR5iuJsB7VwVL-2" edge="1">
          <mxGeometry relative="1" as="geometry">
            <mxPoint x="710" y="1540" as="targetPoint" />
            <mxPoint x="614" y="1460" as="sourcePoint" />
          </mxGeometry>
        </mxCell>
        <mxCell id="w8nqDf1ZR5iuJsB7VwVL-2" value="Φόρμα συμπλήρωσης στοιχείων" style="ellipse;shape=umlEntity;whiteSpace=wrap;html=1;strokeColor=#000000;fontColor=#000000;" parent="1" vertex="1">
          <mxGeometry x="680" y="1530" width="90" height="90" as="geometry" />
        </mxCell>
        <mxCell id="PaOrN-Bwbaz09RTFRe5F-1" value="&lt;font&gt;Λήψη προγραμμάτων&lt;/font&gt;" style="ellipse;shape=umlControl;whiteSpace=wrap;html=1;strokeColor=#000000;fontColor=#000000;" parent="1" vertex="1">
          <mxGeometry x="500" y="390" width="85" height="90" as="geometry" />
        </mxCell>
        <mxCell id="PaOrN-Bwbaz09RTFRe5F-2" style="rounded=0;orthogonalLoop=1;jettySize=auto;html=1;strokeColor=#000000;fontColor=#000000;exitX=0.046;exitY=0.825;exitDx=0;exitDy=0;exitPerimeter=0;entryX=0.848;entryY=0.214;entryDx=0;entryDy=0;entryPerimeter=0;" parent="1" source="PaOrN-Bwbaz09RTFRe5F-1" target="SWPQcaOPygvo77F1xrFM-184" edge="1">
          <mxGeometry relative="1" as="geometry">
            <mxPoint x="630" y="435" as="targetPoint" />
            <mxPoint x="593" y="433" as="sourcePoint" />
          </mxGeometry>
        </mxCell>
        <mxCell id="PaOrN-Bwbaz09RTFRe5F-3" value="&lt;font&gt;Λήψη κατάλληλων γυμναστηρίων&lt;/font&gt;" style="ellipse;shape=umlControl;whiteSpace=wrap;html=1;strokeColor=#000000;fontColor=#000000;" parent="1" vertex="1">
          <mxGeometry x="612.5" y="530" width="85" height="90" as="geometry" />
        </mxCell>
        <mxCell id="PaOrN-Bwbaz09RTFRe5F-4" style="rounded=0;orthogonalLoop=1;jettySize=auto;html=1;strokeColor=#000000;fontColor=#000000;exitX=0.512;exitY=0.19;exitDx=0;exitDy=0;exitPerimeter=0;entryX=0.5;entryY=1;entryDx=0;entryDy=0;" parent="1" source="PaOrN-Bwbaz09RTFRe5F-3" target="SWPQcaOPygvo77F1xrFM-187" edge="1">
          <mxGeometry relative="1" as="geometry">
            <mxPoint x="620" y="470" as="targetPoint" />
            <mxPoint x="514" y="474" as="sourcePoint" />
          </mxGeometry>
        </mxCell>
        <mxCell id="PaOrN-Bwbaz09RTFRe5F-6" value="&lt;font&gt;Λήψη πληροφοριών γυμναστηρίου&lt;/font&gt;" style="ellipse;shape=umlControl;whiteSpace=wrap;html=1;strokeColor=#000000;fontColor=#000000;" parent="1" vertex="1">
          <mxGeometry x="755" y="587.5" width="85" height="90" as="geometry" />
        </mxCell>
        <mxCell id="PaOrN-Bwbaz09RTFRe5F-7" style="rounded=0;orthogonalLoop=1;jettySize=auto;html=1;strokeColor=#000000;fontColor=#000000;entryX=0.951;entryY=0.795;entryDx=0;entryDy=0;exitX=0.32;exitY=0.158;exitDx=0;exitDy=0;exitPerimeter=0;entryPerimeter=0;" parent="1" source="PaOrN-Bwbaz09RTFRe5F-6" target="SWPQcaOPygvo77F1xrFM-187" edge="1">
          <mxGeometry relative="1" as="geometry">
            <mxPoint x="876" y="853" as="targetPoint" />
            <mxPoint x="821" y="685" as="sourcePoint" />
          </mxGeometry>
        </mxCell>
      </root>
    </mxGraphModel>
  </diagram>
</mxfile>
